<svg viewBox="0 0 1920 1080" xmlns="http://www.w3.org/2000/svg"><path fill="#372c2e" d="M0 0h1920v1080H0z"/><ellipse cx="39.437" cy="34.801" rx="2.941" ry="2.821" fill="#614934" opacity=".248"/><ellipse cx="87.874" cy="20.407" rx="2.308" ry="2.152" fill="#614934" opacity=".453"/><ellipse cx="206.853" cy="44.571" rx="3.222" ry="3.133" fill="#614934" opacity="-.103"/><ellipse cx="293.776" cy="19.832" rx="3.559" ry="3.082" fill="#614934" opacity=".323"/><ellipse cx="350.526" cy="32.227" rx="3.496" ry="3.364" fill="#614934" opacity=".139"/><ellipse cx="435.416" cy="20.358" rx="2.812" ry="2.312" fill="#614934" opacity=".149"/><ellipse cx="501.47" cy="47.671" rx="3.362" ry="3.224" fill="#614934" opacity=".411"/><ellipse cx="551.038" cy="12.756" rx="2.803" ry="2.36" fill="#614934" opacity=".273"/><ellipse cx="637.756" cy="27.313" rx="3.461" ry="3.334" fill="#614934" opacity=".533"/><ellipse cx="759.253" cy="42.563" rx="2.633" ry="2.404" fill="#614934" opacity=".382"/><ellipse cx="804.163" cy="47.283" rx="2.95" ry="2.936" fill="#614934" opacity=".68"/><ellipse cx="871.494" cy="27.064" rx="2.516" ry="2.168" fill="#614934" opacity=".687"/><ellipse cx="944.588" cy="42.409" rx="2.852" ry="2.71" fill="#614934" opacity=".658"/><ellipse cx="1052.268" cy="52.306" rx="3.624" ry="3.476" fill="#614934" opacity=".711"/><ellipse cx="1108.84" cy="20.945" rx="3.799" ry="3.604" fill="#614934" opacity=".307"/><ellipse cx="1227.62" cy="52.811" rx="3.874" ry="3.715" fill="#614934" opacity=".848"/><ellipse cx="1300.029" cy="28.829" rx="3.447" ry="3.248" fill="#614934" opacity=".367"/><ellipse cx="1380.036" cy="22.414" rx="3.52" ry="3.175" fill="#614934" opacity=".736"/><ellipse cx="1410.462" cy="16.319" rx="3.751" ry="3.326" fill="#614934" opacity=".193"/><ellipse cx="1499.012" cy="12.306" rx="2.671" ry="2.184" fill="#614934" opacity=".923"/><ellipse cx="1571.429" cy="16.271" rx="2.453" ry="2.401" fill="#614934" opacity=".864"/><ellipse cx="1672.573" cy="13.667" rx="3.874" ry="3.413" fill="#614934" opacity=".728"/><ellipse cx="1768.656" cy="7.347" rx="2.391" ry="2.238" fill="#614934" opacity=".418"/><ellipse cx="1831.659" cy="27.93" rx="3.703" ry="3.354" fill="#614934" opacity=".53"/><ellipse cx="1919.483" cy="36.768" rx="3.041" ry="2.696" fill="#614934" opacity="-.099"/><ellipse cx="22.764" cy="99.98" rx="3.551" ry="3.546" fill="#614934" opacity=".455"/><ellipse cx="99.277" cy="75.616" rx="3.482" ry="3.341" fill="#614934" opacity=".714"/><ellipse cx="164.196" cy="54.406" rx="3.467" ry="3.123" fill="#614934" opacity=".429"/><ellipse cx="287.81" cy="105.99" rx="3.646" ry="3.226" fill="#614934" opacity=".288"/><ellipse cx="333.412" cy="58.412" rx="2.828" ry="2.427" fill="#614934" opacity=".033"/><ellipse cx="421.977" cy="93.296" rx="2.811" ry="2.483" fill="#614934" opacity=".187"/><ellipse cx="516.397" cy="60.181" rx="3.165" ry="2.964" fill="#614934" opacity=".029"/><ellipse cx="598.046" cy="84.752" rx="2.614" ry="2.352" fill="#614934" opacity="-.037"/><ellipse cx="686.054" cy="63.493" rx="3.274" ry="2.953" fill="#614934" opacity=".174"/><ellipse cx="740.381" cy="87.46" rx="3.218" ry="2.752" fill="#614934" opacity=".795"/><ellipse cx="821.96" cy="106.604" rx="2.739" ry="2.395" fill="#614934" opacity=".5"/><ellipse cx="851.516" cy="90.238" rx="3.505" ry="3.307" fill="#614934" opacity=".757"/><ellipse cx="938.231" cy="84.368" rx="3.315" ry="2.847" fill="#614934" opacity=".359"/><ellipse cx="1046.743" cy="91.305" rx="3.42" ry="3.318" fill="#614934" opacity=".461"/><ellipse cx="1112.715" cy="56.902" rx="4.053" ry="3.951" fill="#614934" opacity=".326"/><ellipse cx="1231.868" cy="70.374" rx="3.375" ry="3.19" fill="#614934" opacity=".001"/><ellipse cx="1240.827" cy="83.979" rx="4.029" ry="3.694" fill="#614934" opacity=".286"/><ellipse cx="1317.275" cy="83.036" rx="2.968" ry="2.493" fill="#614934" opacity="-.156"/><ellipse cx="1461.656" cy="83.032" rx="2.617" ry="2.262" fill="#614934" opacity=".118"/><ellipse cx="1479.442" cy="58.799" rx="3.95" ry="3.505" fill="#614934" opacity="-.047"/><ellipse cx="1570.403" cy="90.08" rx="3.761" ry="3.279" fill="#614934" opacity=".45"/><ellipse cx="1626.761" cy="86.163" rx="2.243" ry="2.053" fill="#614934" opacity=".708"/><ellipse cx="1716.255" cy="83.234" rx="4.316" ry="3.858" fill="#614934" opacity=".255"/><ellipse cx="1802.178" cy="102.954" rx="4.439" ry="3.951" fill="#614934" opacity=".09"/><ellipse cx="1862.729" cy="76.196" rx="3.065" ry="2.797" fill="#614934" opacity=".243"/><ellipse cx="28.761" cy="120.746" rx="3.139" ry="2.936" fill="#614934" opacity=".713"/><ellipse cx="104.185" cy="140.875" rx="3.826" ry="3.695" fill="#614934" opacity=".142"/><ellipse cx="160.254" cy="124.191" rx="2.591" ry="2.338" fill="#614934" opacity=".017"/><ellipse cx="270.835" cy="123.046" rx="4.374" ry="3.939" fill="#614934" opacity=".281"/><ellipse cx="379.344" cy="109.189" rx="2.932" ry="2.83" fill="#614934" opacity=".093"/><ellipse cx="425.209" cy="152.927" rx="3.744" ry="3.274" fill="#614934" opacity=".184"/><ellipse cx="476.944" cy="137.816" rx="3.108" ry="2.629" fill="#614934" opacity=".776"/><ellipse cx="568.043" cy="160.442" rx="3.893" ry="3.763" fill="#614934" opacity="-.041"/><ellipse cx="691.734" cy="123.353" rx="3.297" ry="2.91" fill="#614934" opacity="-.069"/><ellipse cx="763.07" cy="116.539" rx="2.95" ry="2.688" fill="#614934" opacity="-.041"/><ellipse cx="831.111" cy="140.819" rx="3.807" ry="3.396" fill="#614934" opacity="-.106"/><ellipse cx="859.244" cy="153.335" rx="3.455" ry="3.176" fill="#614934" opacity=".533"/><ellipse cx="938.472" cy="142.093" rx="2.293" ry="2.077" fill="#614934" opacity=".484"/><ellipse cx="1044.639" cy="109.287" rx="4.342" ry="3.95" fill="#614934" opacity=".618"/><ellipse cx="1082.175" cy="111.37" rx="3.873" ry="3.792" fill="#614934" opacity=".684"/><ellipse cx="1220.007" cy="128.564" rx="2.513" ry="2.204" fill="#614934" opacity=".305"/><ellipse cx="1243.172" cy="125.408" rx="2.633" ry="2.185" fill="#614934" opacity=".47"/><ellipse cx="1357.442" cy="130.92" rx="3.507" ry="3.444" fill="#614934" opacity=".24"/><ellipse cx="1414.511" cy="117.363" rx="2.955" ry="2.541" fill="#614934" opacity=".302"/><ellipse cx="1537.859" cy="125.312" rx="4.039" ry="3.934" fill="#614934" opacity="-.083"/><ellipse cx="1604.944" cy="121.281" rx="3.355" ry="3.31" fill="#614934" opacity="-.236"/><ellipse cx="1618.355" cy="109.879" rx="3.436" ry="2.974" fill="#614934" opacity="-.119"/><ellipse cx="1743.213" cy="158.213" rx="3.729" ry="3.507" fill="#614934" opacity=".213"/><ellipse cx="1786.354" cy="138.849" rx="3.309" ry="2.983" fill="#614934" opacity=".101"/><ellipse cx="1896.73" cy="123.568" rx="2.974" ry="2.804" fill="#614934" opacity=".459"/><ellipse cx="6.286" cy="166.632" rx="3.746" ry="3.377" fill="#614934" opacity=".477"/><ellipse cx="145.584" cy="171.015" rx="3.805" ry="3.339" fill="#614934" opacity=".453"/><ellipse cx="191.53" cy="166.144" rx="2.984" ry="2.811" fill="#614934" opacity=".538"/><ellipse cx="252.841" cy="212.742" rx="2.446" ry="2.047" fill="#614934" opacity=".241"/><ellipse cx="344.295" cy="210.278" rx="4" ry="3.713" fill="#614934" opacity=".209"/><ellipse cx="457.253" cy="213.7" rx="4.001" ry="3.811" fill="#614934" opacity=".569"/><ellipse cx="501.018" cy="167.227" rx="2.611" ry="2.242" fill="#614934" opacity=".093"/><ellipse cx="548.231" cy="202.876" rx="2.126" ry="2.112" fill="#614934" opacity=".607"/><ellipse cx="660.188" cy="174.599" rx="3" ry="2.849" fill="#614934" opacity=".315"/><ellipse cx="735.52" cy="193.429" rx="3.312" ry="3.206" fill="#614934" opacity=".697"/><ellipse cx="782.646" cy="207.774" rx="4.116" ry="3.767" fill="#614934" opacity="-.265"/><ellipse cx="887.982" cy="169.584" rx="2.859" ry="2.833" fill="#614934" opacity=".581"/><ellipse cx="932.195" cy="209.175" rx="2.537" ry="2.402" fill="#614934" opacity=".049"/><ellipse cx="1027.147" cy="200.644" rx="2.72" ry="2.699" fill="#614934" opacity=".74"/><ellipse cx="1094.219" cy="205.142" rx="2.536" ry="2.168" fill="#614934" opacity="-.026"/><ellipse cx="1194.178" cy="215.29" rx="2.197" ry="2.011" fill="#614934" opacity=".235"/><ellipse cx="1235.619" cy="188.869" rx="3.463" ry="3.035" fill="#614934" opacity=".034"/><ellipse cx="1310.678" cy="202.755" rx="4" ry="3.567" fill="#614934" opacity=".057"/><ellipse cx="1430.635" cy="200.761" rx="2.926" ry="2.535" fill="#614934" opacity="-.027"/><ellipse cx="1524.586" cy="193.809" rx="3.539" ry="3.119" fill="#614934" opacity=".374"/><ellipse cx="1562.769" cy="200.423" rx="3.294" ry="3.122" fill="#614934" opacity=".254"/><ellipse cx="1670.189" cy="202.884" rx="2.82" ry="2.72" fill="#614934" opacity=".76"/><ellipse cx="1756.788" cy="214.824" rx="3.713" ry="3.492" fill="#614934" opacity=".048"/><ellipse cx="1811.305" cy="162.954" rx="2.279" ry="2.228" fill="#614934" opacity=".704"/><ellipse cx="1911.123" cy="170.419" rx="2.31" ry="2.181" fill="#614934" opacity="-.141"/><ellipse cx="19.847" cy="255.565" rx="3.412" ry="3.161" fill="#614934" opacity="-.163"/><ellipse cx="91.355" cy="219.785" rx="3.645" ry="3.325" fill="#614934" opacity=".406"/><ellipse cx="154.491" cy="260.918" rx="2.209" ry="2.067" fill="#614934" opacity=".62"/><ellipse cx="253.767" cy="264.905" rx="3.659" ry="3.608" fill="#614934" opacity=".661"/><ellipse cx="334.348" cy="243.34" rx="3.343" ry="3.129" fill="#614934" opacity=".378"/><ellipse cx="413.009" cy="217.753" rx="3.586" ry="3.556" fill="#614934" opacity=".537"/><ellipse cx="529.576" cy="256.409" rx="2.72" ry="2.526" fill="#614934" opacity=".676"/><ellipse cx="549.26" cy="255.742" rx="2.345" ry="2.338" fill="#614934" opacity=".237"/><ellipse cx="664.236" cy="220.652" rx="4.061" ry="3.978" fill="#614934" opacity=".481"/><ellipse cx="758.864" cy="269.769" rx="4.202" ry="3.966" fill="#614934" opacity=".676"/><ellipse cx="775.38" cy="229.209" rx="2.382" ry="2.142" fill="#614934" opacity="-.08"/><ellipse cx="917.624" cy="219.901" rx="4.001" ry="3.921" fill="#614934" opacity=".199"/><ellipse cx="968.662" cy="265.728" rx="3.772" ry="3.433" fill="#614934" opacity=".107"/><ellipse cx="1041.537" cy="230.971" rx="3.694" ry="3.437" fill="#614934" opacity=".236"/><ellipse cx="1113.061" cy="236.793" rx="3.314" ry="3.146" fill="#614934" opacity=".523"/><ellipse cx="1231.519" cy="257.126" rx="2.195" ry="2.024" fill="#614934" opacity=".196"/><ellipse cx="1233.529" cy="216.701" rx="2.751" ry="2.407" fill="#614934" opacity="-.049"/><ellipse cx="1363.495" cy="242.775" rx="4.228" ry="3.783" fill="#614934" opacity=".065"/><ellipse cx="1431.015" cy="225.181" rx="3.209" ry="3.116" fill="#614934" opacity=".336"/><ellipse cx="1470.645" cy="268.102" rx="2.829" ry="2.57" fill="#614934" opacity=".19"/><ellipse cx="1551.316" cy="233.811" rx="4.202" ry="3.772" fill="#614934" opacity=".619"/><ellipse cx="1671.159" cy="265.722" rx="2.442" ry="2.178" fill="#614934" opacity=".401"/><ellipse cx="1716.029" cy="221.607" rx="3.805" ry="3.442" fill="#614934" opacity=".85"/><ellipse cx="1814.357" cy="224.574" rx="3.017" ry="2.66" fill="#614934" opacity="-.103"/><ellipse cx="1873.419" cy="230.327" rx="2.657" ry="2.598" fill="#614934" opacity=".164"/><ellipse cx="54.484" cy="276.809" rx="3.911" ry="3.492" fill="#614934" opacity=".224"/><ellipse cx="129.398" cy="307.339" rx="4.176" ry="3.872" fill="#614934" opacity=".024"/><ellipse cx="210.558" cy="288.771" rx="2.858" ry="2.475" fill="#614934" opacity=".497"/><ellipse cx="268.675" cy="301.079" rx="4.142" ry="3.923" fill="#614934" opacity=".644"/><ellipse cx="317.957" cy="281.986" rx="2.212" ry="2.146" fill="#614934" opacity=".009"/><ellipse cx="389.556" cy="290.268" rx="2.749" ry="2.38" fill="#614934" opacity=".685"/><ellipse cx="472.142" cy="308.443" rx="3.09" ry="2.936" fill="#614934" opacity="-.008"/><ellipse cx="593.248" cy="313.273" rx="3.93" ry="3.84" fill="#614934" opacity=".409"/><ellipse cx="674.371" cy="306.218" rx="3.796" ry="3.607" fill="#614934" opacity=".373"/><ellipse cx="713.411" cy="293.694" rx="3.544" ry="3.132" fill="#614934" opacity=".624"/><ellipse cx="792.004" cy="316.1" rx="3.62" ry="3.391" fill="#614934" opacity="-.152"/><ellipse cx="852.663" cy="295.247" rx="3.281" ry="2.9" fill="#614934" opacity=".394"/><ellipse cx="980.415" cy="282.908" rx="2.258" ry="2.252" fill="#614934" opacity=".012"/><ellipse cx="1057.158" cy="309.862" rx="2.151" ry="2.087" fill="#614934" opacity=".638"/><ellipse cx="1116.918" cy="289.453" rx="2.957" ry="2.825" fill="#614934" opacity=".53"/><ellipse cx="1203.057" cy="307.062" rx="3.915" ry="3.555" fill="#614934" opacity="-.179"/><ellipse cx="1284.392" cy="311.256" rx="3.416" ry="3.378" fill="#614934" opacity=".801"/><ellipse cx="1362.578" cy="274.728" rx="2.269" ry="2.014" fill="#614934" opacity=".542"/><ellipse cx="1439.537" cy="320.196" rx="3.943" ry="3.806" fill="#614934" opacity="-.019"/><ellipse cx="1503.657" cy="285.155" rx="3.774" ry="3.475" fill="#614934" opacity="-.06"/><ellipse cx="1567.56" cy="322.619" rx="3.862" ry="3.592" fill="#614934" opacity=".318"/><ellipse cx="1654.374" cy="294.703" rx="4.378" ry="3.957" fill="#614934" opacity=".637"/><ellipse cx="1730.361" cy="296.038" rx="4.025" ry="3.826" fill="#614934" opacity=".279"/><ellipse cx="1811.309" cy="290.733" rx="3.707" ry="3.239" fill="#614934" opacity="-.106"/><ellipse cx="1889.034" cy="313.731" rx="3.155" ry="3.148" fill="#614934" opacity=".505"/><ellipse cx="67.979" cy="345.363" rx="3.088" ry="2.84" fill="#614934" opacity=".573"/><ellipse cx="135.682" cy="343.307" rx="2.466" ry="2.37" fill="#614934" opacity="-.027"/><ellipse cx="176.381" cy="375.361" rx="3.628" ry="3.434" fill="#614934" opacity=".585"/><ellipse cx="286.444" cy="325.44" rx="3.599" ry="3.232" fill="#614934" opacity=".832"/><ellipse cx="376.914" cy="357.398" rx="3.717" ry="3.645" fill="#614934" opacity=".391"/><ellipse cx="434.023" cy="332.184" rx="3.524" ry="3.083" fill="#614934" opacity=".615"/><ellipse cx="507.432" cy="365.257" rx="3.293" ry="2.858" fill="#614934" opacity=".108"/><ellipse cx="555.919" cy="352.657" rx="2.98" ry="2.565" fill="#614934" opacity=".869"/><ellipse cx="632.169" cy="362.59" rx="2.674" ry="2.465" fill="#614934" opacity=".612"/><ellipse cx="699.893" cy="374.239" rx="4.018" ry="3.715" fill="#614934" opacity=".106"/><ellipse cx="787.147" cy="374.248" rx="4.09" ry="3.953" fill="#614934" opacity=".045"/><ellipse cx="891.799" cy="338.021" rx="3.983" ry="3.497" fill="#614934" opacity=".484"/><ellipse cx="948.277" cy="373.199" rx="3.116" ry="2.815" fill="#614934" opacity=".427"/><ellipse cx="1005.893" cy="344.081" rx="3.83" ry="3.646" fill="#614934" opacity=".35"/><ellipse cx="1121.097" cy="364.11" rx="2.672" ry="2.305" fill="#614934" opacity="-.224"/><ellipse cx="1188.776" cy="365.786" rx="3.443" ry="3.099" fill="#614934" opacity=".483"/><ellipse cx="1276.926" cy="360.958" rx="2.365" ry="2.231" fill="#614934" opacity=".112"/><ellipse cx="1370.141" cy="362.376" rx="3.007" ry="2.629" fill="#614934" opacity="-.048"/><ellipse cx="1406.142" cy="328.521" rx="4.263" ry="3.86" fill="#614934" opacity=".699"/><ellipse cx="1516.364" cy="366.272" rx="3.2" ry="3.003" fill="#614934" opacity=".459"/><ellipse cx="1591.097" cy="327.664" rx="3.724" ry="3.245" fill="#614934" opacity=".658"/><ellipse cx="1679.218" cy="334.73" rx="4.077" ry="3.776" fill="#614934" opacity=".611"/><ellipse cx="1758.023" cy="351.68" rx="2.949" ry="2.611" fill="#614934" opacity=".469"/><ellipse cx="1778.532" cy="324.928" rx="4.146" ry="3.911" fill="#614934" opacity=".476"/><ellipse cx="1908.098" cy="377.551" rx="3.848" ry="3.531" fill="#614934" opacity=".103"/><ellipse cx="56.668" cy="405.69" rx="2.602" ry="2.432" fill="#614934" opacity=".191"/><ellipse cx="114.925" cy="401.983" rx="2.724" ry="2.48" fill="#614934" opacity=".467"/><ellipse cx="224.466" cy="383.287" rx="3.725" ry="3.426" fill="#614934" opacity=".455"/><ellipse cx="234.329" cy="412.073" rx="3.973" ry="3.577" fill="#614934" opacity=".905"/><ellipse cx="382.44" cy="428.701" rx="2.479" ry="2.254" fill="#614934" opacity="-.24"/><ellipse cx="446.221" cy="429.007" rx="2.665" ry="2.207" fill="#614934" opacity="-.049"/><ellipse cx="499.261" cy="403.699" rx="3.992" ry="3.704" fill="#614934" opacity=".046"/><ellipse cx="540.318" cy="389.077" rx="3.32" ry="2.854" fill="#614934" opacity=".071"/><ellipse cx="620.463" cy="391.488" rx="2.737" ry="2.272" fill="#614934" opacity=".132"/><ellipse cx="764.644" cy="411.098" rx="3.935" ry="3.903" fill="#614934" opacity=".434"/><ellipse cx="819.099" cy="419.874" rx="4.063" ry="3.829" fill="#614934" opacity="-.006"/><ellipse cx="876.166" cy="378.468" rx="3.822" ry="3.748" fill="#614934" opacity="-.112"/><ellipse cx="958.583" cy="396.584" rx="4.009" ry="3.645" fill="#614934" opacity=".573"/><ellipse cx="1065.483" cy="383.757" rx="2.866" ry="2.495" fill="#614934" opacity="-.092"/><ellipse cx="1114.346" cy="385.396" rx="2.526" ry="2.141" fill="#614934" opacity="-.189"/><ellipse cx="1189.527" cy="385.283" rx="2.659" ry="2.58" fill="#614934" opacity=".682"/><ellipse cx="1286.82" cy="396.743" rx="2.538" ry="2.353" fill="#614934" opacity="-.157"/><ellipse cx="1347.082" cy="414.77" rx="2.594" ry="2.398" fill="#614934" opacity=".035"/><ellipse cx="1400.482" cy="390.401" rx="2.509" ry="2.245" fill="#614934" opacity="-.012"/><ellipse cx="1519.227" cy="395.774" rx="3.404" ry="3.04" fill="#614934" opacity=".469"/><ellipse cx="1543.555" cy="409.742" rx="3.008" ry="2.834" fill="#614934" opacity=".713"/><ellipse cx="1673.565" cy="392.788" rx="4.182" ry="3.877" fill="#614934" opacity=".397"/><ellipse cx="1729.587" cy="397.285" rx="4.356" ry="3.863" fill="#614934" opacity=".211"/><ellipse cx="1813.258" cy="425.138" rx="3.617" ry="3.594" fill="#614934" opacity=".275"/><ellipse cx="1860.059" cy="401.847" rx="3.525" ry="3.216" fill="#614934" opacity=".665"/><ellipse cx="63.724" cy="477.428" rx="2.193" ry="2.155" fill="#614934" opacity="-.123"/><ellipse cx="94.442" cy="433.69" rx="2.307" ry="2.288" fill="#614934" opacity=".802"/><ellipse cx="197.733" cy="459.575" rx="4.212" ry="3.968" fill="#614934" opacity=".22"/><ellipse cx="271.998" cy="478.63" rx="4.101" ry="3.788" fill="#614934" opacity=".904"/><ellipse cx="373.717" cy="455.323" rx="3.632" ry="3.372" fill="#614934" opacity=".29"/><ellipse cx="426.07" cy="483.003" rx="4.206" ry="3.921" fill="#614934" opacity=".459"/><ellipse cx="519.902" cy="448.592" rx="4.081" ry="3.644" fill="#614934" opacity="-.188"/><ellipse cx="589.212" cy="474.497" rx="2.23" ry="2.185" fill="#614934" opacity=".094"/><ellipse cx="692.216" cy="461.589" rx="2.736" ry="2.322" fill="#614934" opacity="-.039"/><ellipse cx="717.761" cy="464.376" rx="2.243" ry="2.146" fill="#614934" opacity=".834"/><ellipse cx="830.935" cy="439.822" rx="3.52" ry="3.291" fill="#614934" opacity=".665"/><ellipse cx="910.68" cy="434.849" rx="3.397" ry="3.125" fill="#614934" opacity=".858"/><ellipse cx="975.834" cy="458.077" rx="4.041" ry="3.861" fill="#614934" opacity=".322"/><ellipse cx="1058.94" cy="472.703" rx="2.844" ry="2.409" fill="#614934" opacity=".807"/><ellipse cx="1081.065" cy="479.506" rx="3.64" ry="3.305" fill="#614934" opacity=".538"/><ellipse cx="1196.347" cy="476.017" rx="3.416" ry="3.092" fill="#614934" opacity="-.142"/><ellipse cx="1295.983" cy="456.207" rx="2.863" ry="2.664" fill="#614934" opacity=".038"/><ellipse cx="1335.878" cy="443.193" rx="2.964" ry="2.764" fill="#614934" opacity=".237"/><ellipse cx="1406.731" cy="482.702" rx="3.526" ry="3.348" fill="#614934" opacity=".371"/><ellipse cx="1537.106" cy="438.307" rx="3.49" ry="3.349" fill="#614934" opacity="-.131"/><ellipse cx="1552.226" cy="469.16" rx="3.721" ry="3.29" fill="#614934" opacity=".416"/><ellipse cx="1637.853" cy="463.196" rx="2.913" ry="2.781" fill="#614934" opacity=".443"/><ellipse cx="1694.427" cy="455.522" rx="2.644" ry="2.564" fill="#614934" opacity=".228"/><ellipse cx="1832.012" cy="442.714" rx="3.861" ry="3.643" fill="#614934" opacity=".036"/><ellipse cx="1918.859" cy="444.906" rx="4.297" ry="3.802" fill="#614934" opacity=".147"/><ellipse cx="60.57" cy="492.136" rx="3.262" ry="2.838" fill="#614934" opacity="-.089"/><ellipse cx="84.135" cy="508.742" rx="3.567" ry="3.48" fill="#614934" opacity=".78"/><ellipse cx="188.916" cy="512.712" rx="3.96" ry="3.697" fill="#614934" opacity=".621"/><ellipse cx="295.124" cy="495.309" rx="4.077" ry="3.805" fill="#614934" opacity=".541"/><ellipse cx="372.134" cy="495.795" rx="3.973" ry="3.565" fill="#614934" opacity=".654"/><ellipse cx="458.856" cy="532.823" rx="2.239" ry="2.062" fill="#614934" opacity=".35"/><ellipse cx="538.798" cy="532.26" rx="3.195" ry="3.013" fill="#614934" opacity=".59"/><ellipse cx="553.09" cy="538.282" rx="3.152" ry="2.679" fill="#614934" opacity=".262"/><ellipse cx="628.386" cy="539.076" rx="2.937" ry="2.475" fill="#614934" opacity=".864"/><ellipse cx="711.001" cy="502.519" rx="3.546" ry="3.355" fill="#614934" opacity=".153"/><ellipse cx="772.914" cy="498.086" rx="3.151" ry="3.085" fill="#614934" opacity=".253"/><ellipse cx="890.973" cy="515.199" rx="3.165" ry="3.108" fill="#614934" opacity=".26"/><ellipse cx="964.698" cy="521.679" rx="2.416" ry="2.177" fill="#614934" opacity=".31"/><ellipse cx="1031.222" cy="515.47" rx="3.973" ry="3.797" fill="#614934" opacity="-.126"/><ellipse cx="1091.399" cy="496.113" rx="3.496" ry="3.027" fill="#614934" opacity="-.007"/><ellipse cx="1168.529" cy="510.068" rx="2.077" ry="2.046" fill="#614934" opacity=".247"/><ellipse cx="1249.327" cy="521.738" rx="2.85" ry="2.736" fill="#614934" opacity=".343"/><ellipse cx="1379.944" cy="508.216" rx="2.604" ry="2.348" fill="#614934" opacity=".09"/><ellipse cx="1439.728" cy="487.182" rx="3.204" ry="2.794" fill="#614934" opacity="-.159"/><ellipse cx="1479.926" cy="503.62" rx="3.937" ry="3.761" fill="#614934" opacity=".097"/><ellipse cx="1598.152" cy="529.733" rx="3.36" ry="3.042" fill="#614934" opacity=".752"/><ellipse cx="1675.565" cy="519.976" rx="3.571" ry="3.141" fill="#614934" opacity=".23"/><ellipse cx="1709.792" cy="518.97" rx="3.496" ry="3.256" fill="#614934" opacity="-.044"/><ellipse cx="1805.856" cy="528.242" rx="4.088" ry="3.718" fill="#614934" opacity=".333"/><ellipse cx="1910.144" cy="499.064" rx="2.373" ry="2.178" fill="#614934" opacity=".465"/><ellipse cx="8.202" cy="571.565" rx="2.647" ry="2.642" fill="#614934" opacity=".221"/><ellipse cx="105.433" cy="589.318" rx="4.03" ry="3.574" fill="#614934" opacity=".12"/><ellipse cx="188.707" cy="572.86" rx="3.878" ry="3.521" fill="#614934" opacity=".718"/><ellipse cx="234.938" cy="574.723" rx="3.141" ry="2.76" fill="#614934" opacity=".01"/><ellipse cx="336.192" cy="547.175" rx="2.95" ry="2.868" fill="#614934" opacity=".113"/><ellipse cx="419.772" cy="569.322" rx="2.691" ry="2.605" fill="#614934" opacity=".699"/><ellipse cx="515.635" cy="551.694" rx="2.869" ry="2.534" fill="#614934" opacity=".675"/><ellipse cx="601.694" cy="542.469" rx="2.438" ry="2.197" fill="#614934" opacity=".136"/><ellipse cx="662.712" cy="576.251" rx="3.557" ry="3.315" fill="#614934" opacity=".676"/><ellipse cx="760.046" cy="570.656" rx="4.116" ry="3.768" fill="#614934" opacity=".542"/><ellipse cx="820.919" cy="557.165" rx="3.073" ry="2.763" fill="#614934" opacity=".442"/><ellipse cx="918.406" cy="550.896" rx="3.214" ry="2.97" fill="#614934" opacity=".254"/><ellipse cx="1000.77" cy="549.143" rx="3.176" ry="3.077" fill="#614934" opacity=".291"/><ellipse cx="1059.498" cy="579.1" rx="2.356" ry="2.015" fill="#614934" opacity="-.031"/><ellipse cx="1116.337" cy="570.723" rx="3.841" ry="3.636" fill="#614934" opacity=".202"/><ellipse cx="1171.244" cy="580.68" rx="2.979" ry="2.737" fill="#614934" opacity=".896"/><ellipse cx="1291.524" cy="591.537" rx="3.313" ry="3.051" fill="#614934" opacity=".089"/><ellipse cx="1366.027" cy="592.279" rx="2.338" ry="2.012" fill="#614934" opacity=".173"/><ellipse cx="1420.016" cy="543.117" rx="4.06" ry="3.706" fill="#614934" opacity=".498"/><ellipse cx="1514.446" cy="570.758" rx="2.817" ry="2.811" fill="#614934" opacity=".813"/><ellipse cx="1594.291" cy="591.926" rx="3.364" ry="3.045" fill="#614934" opacity=".533"/><ellipse cx="1638.057" cy="561.962" rx="2.328" ry="2.008" fill="#614934" opacity=".517"/><ellipse cx="1713.731" cy="566.383" rx="2.516" ry="2.396" fill="#614934" opacity="-.097"/><ellipse cx="1809.99" cy="578.354" rx="4.082" ry="3.661" fill="#614934" opacity=".556"/><ellipse cx="1875.273" cy="580.673" rx="2.717" ry="2.484" fill="#614934" opacity=".187"/><ellipse cx="34.627" cy="614.309" rx="2.516" ry="2.428" fill="#614934" opacity=".162"/><ellipse cx="128.144" cy="616.458" rx="2.921" ry="2.803" fill="#614934" opacity="-.016"/><ellipse cx="184.283" cy="639.752" rx="2.127" ry="2.126" fill="#614934" opacity=".236"/><ellipse cx="282.379" cy="626.91" rx="2.999" ry="2.848" fill="#614934" opacity=".192"/><ellipse cx="311.671" cy="605.648" rx="3.369" ry="3.084" fill="#614934" opacity=".95"/><ellipse cx="441.288" cy="625.933" rx="2.785" ry="2.598" fill="#614934" opacity=".026"/><ellipse cx="518.3" cy="632.445" rx="4.24" ry="3.903" fill="#614934" opacity=".378"/><ellipse cx="546.805" cy="622.609" rx="2.475" ry="2.268" fill="#614934" opacity=".768"/><ellipse cx="634.485" cy="623.778" rx="2.116" ry="2.107" fill="#614934" opacity=".12"/><ellipse cx="717.483" cy="612.35" rx="4.031" ry="3.841" fill="#614934" opacity=".22"/><ellipse cx="840.255" cy="634.173" rx="3.655" ry="3.541" fill="#614934" opacity=".477"/><ellipse cx="908.095" cy="627.487" rx="2.344" ry="2.19" fill="#614934" opacity=".808"/><ellipse cx="968.249" cy="625.683" rx="3.266" ry="3.261" fill="#614934" opacity=".115"/><ellipse cx="1021.336" cy="635.517" rx="2.826" ry="2.628" fill="#614934" opacity="-.079"/><ellipse cx="1078.589" cy="600.552" rx="3.316" ry="2.837" fill="#614934" opacity="-.005"/><ellipse cx="1212.199" cy="627.78" rx="3.112" ry="3.057" fill="#614934" opacity=".952"/><ellipse cx="1276.724" cy="616.133" rx="3.093" ry="2.815" fill="#614934" opacity=".585"/><ellipse cx="1328.715" cy="619.138" rx="4.052" ry="3.723" fill="#614934" opacity=".415"/><ellipse cx="1442.955" cy="621.974" rx="3.449" ry="2.987" fill="#614934" opacity=".966"/><ellipse cx="1468.913" cy="638.361" rx="3.185" ry="3.095" fill="#614934" opacity=".787"/><ellipse cx="1546.194" cy="635.026" rx="3.187" ry="2.888" fill="#614934" opacity=".196"/><ellipse cx="1644.948" cy="645.812" rx="3.254" ry="2.984" fill="#614934" opacity=".297"/><ellipse cx="1743.482" cy="628.582" rx="2.575" ry="2.546" fill="#614934" opacity=".107"/><ellipse cx="1803.472" cy="617.444" rx="2.881" ry="2.865" fill="#614934" opacity=".092"/><ellipse cx="1889.43" cy="602.911" rx="3.328" ry="3.041" fill="#614934" opacity=".281"/><ellipse cx="36.094" cy="655.946" rx="3.842" ry="3.637" fill="#614934" opacity=".798"/><ellipse cx="89.286" cy="689.732" rx="3.788" ry="3.51" fill="#614934" opacity=".718"/><ellipse cx="192.703" cy="660.259" rx="3.144" ry="3.037" fill="#614934" opacity=".201"/><ellipse cx="306.733" cy="685.523" rx="2.485" ry="2.472" fill="#614934" opacity=".72"/><ellipse cx="375.902" cy="671.043" rx="2.679" ry="2.413" fill="#614934" opacity=".603"/><ellipse cx="414.289" cy="649.558" rx="2.207" ry="2.064" fill="#614934" opacity=".419"/><ellipse cx="508.73" cy="682.188" rx="4.04" ry="3.937" fill="#614934" opacity=".467"/><ellipse cx="560.326" cy="695.539" rx="3.077" ry="3.065" fill="#614934" opacity=".049"/><ellipse cx="649.167" cy="701.761" rx="3.64" ry="3.402" fill="#614934" opacity=".711"/><ellipse cx="736.786" cy="661.453" rx="4.135" ry="3.858" fill="#614934" opacity=".686"/><ellipse cx="792.972" cy="697.373" rx="3.925" ry="3.88" fill="#614934" opacity=".152"/><ellipse cx="865.855" cy="660.86" rx="2.771" ry="2.296" fill="#614934" opacity=".838"/><ellipse cx="984.403" cy="700.883" rx="3.081" ry="2.679" fill="#614934" opacity=".29"/><ellipse cx="1073.502" cy="678.359" rx="3.413" ry="3.338" fill="#614934" opacity=".18"/><ellipse cx="1116.515" cy="673.613" rx="3.975" ry="3.815" fill="#614934" opacity=".052"/><ellipse cx="1201.284" cy="690.195" rx="2.319" ry="2.046" fill="#614934" opacity=".832"/><ellipse cx="1242.247" cy="657.251" rx="2.95" ry="2.838" fill="#614934" opacity=".171"/><ellipse cx="1348.719" cy="681.401" rx="3.6" ry="3.57" fill="#614934" opacity=".361"/><ellipse cx="1444.952" cy="675.486" rx="2.235" ry="2.029" fill="#614934" opacity="-.031"/><ellipse cx="1474.627" cy="691.371" rx="2.804" ry="2.734" fill="#614934" opacity=".879"/><ellipse cx="1562.356" cy="671.177" rx="2.46" ry="2.174" fill="#614934" opacity=".073"/><ellipse cx="1629.087" cy="656.471" rx="3.108" ry="2.699" fill="#614934" opacity=".246"/><ellipse cx="1758.611" cy="668.939" rx="2.348" ry="2.171" fill="#614934" opacity=".731"/><ellipse cx="1819.421" cy="685.005" rx="2.42" ry="2.264" fill="#614934" opacity="-.057"/><ellipse cx="1849.662" cy="673.77" rx="3.456" ry="3.028" fill="#614934" opacity="-.003"/><ellipse cx="73.3" cy="713.032" rx="2.763" ry="2.326" fill="#614934" opacity=".672"/><ellipse cx="81.051" cy="707.715" rx="2.707" ry="2.253" fill="#614934" opacity=".477"/><ellipse cx="192.626" cy="752.225" rx="2.922" ry="2.693" fill="#614934" opacity="-.069"/><ellipse cx="262.612" cy="732.729" rx="2.379" ry="2.133" fill="#614934" opacity=".438"/><ellipse cx="382.483" cy="750.799" rx="4.257" ry="3.869" fill="#614934" opacity=".534"/><ellipse cx="434.769" cy="719.467" rx="3.993" ry="3.949" fill="#614934" opacity=".531"/><ellipse cx="531.474" cy="744.835" rx="2.997" ry="2.979" fill="#614934" opacity=".556"/><ellipse cx="545.208" cy="748.411" rx="3.636" ry="3.551" fill="#614934" opacity=".788"/><ellipse cx="667.465" cy="704.641" rx="4.019" ry="3.835" fill="#614934" opacity=".454"/><ellipse cx="764.878" cy="722.382" rx="3.499" ry="3.199" fill="#614934" opacity=".428"/><ellipse cx="798.604" cy="708.152" rx="2.429" ry="2.264" fill="#614934" opacity=".343"/><ellipse cx="853.753" cy="722.539" rx="3.223" ry="3.206" fill="#614934" opacity=".063"/><ellipse cx="1000.713" cy="745.191" rx="3.967" ry="3.653" fill="#614934" opacity=".381"/><ellipse cx="1052.631" cy="712.411" rx="3.469" ry="3.342" fill="#614934" opacity=".046"/><ellipse cx="1127.489" cy="709.086" rx="3.402" ry="3.328" fill="#614934" opacity=".653"/><ellipse cx="1192.781" cy="711.877" rx="2.92" ry="2.65" fill="#614934" opacity=".332"/><ellipse cx="1275.985" cy="749.054" rx="3.647" ry="3.264" fill="#614934" opacity=".12"/><ellipse cx="1350.894" cy="711.252" rx="4.099" ry="3.713" fill="#614934" opacity=".095"/><ellipse cx="1446.942" cy="719.196" rx="3.232" ry="2.975" fill="#614934" opacity=".888"/><ellipse cx="1512.239" cy="709.763" rx="4.389" ry="3.911" fill="#614934" opacity=".566"/><ellipse cx="1549.854" cy="716.618" rx="3.991" ry="3.973" fill="#614934" opacity=".552"/><ellipse cx="1680.88" cy="744.028" rx="3.029" ry="2.76" fill="#614934" opacity="-.237"/><ellipse cx="1748.142" cy="703.68" rx="2.439" ry="2.049" fill="#614934" opacity=".295"/><ellipse cx="1821.698" cy="732.996" rx="3.006" ry="2.932" fill="#614934" opacity=".33"/><ellipse cx="1864.235" cy="747.524" rx="3.807" ry="3.442" fill="#614934" opacity=".223"/><ellipse cx="65.956" cy="778.514" rx="3.656" ry="3.36" fill="#614934" opacity=".757"/><ellipse cx="133.968" cy="763.839" rx="2.458" ry="2.383" fill="#614934" opacity=".058"/><ellipse cx="212.275" cy="780.957" rx="4.077" ry="3.616" fill="#614934" opacity=".592"/><ellipse cx="259.276" cy="803.231" rx="3.958" ry="3.823" fill="#614934" opacity=".647"/><ellipse cx="368.599" cy="787.002" rx="3.72" ry="3.676" fill="#614934" opacity=".334"/><ellipse cx="420.961" cy="808.411" rx="2.771" ry="2.283" fill="#614934" opacity=".08"/><ellipse cx="488.897" cy="782.511" rx="3.186" ry="2.697" fill="#614934" opacity=".118"/><ellipse cx="594.706" cy="805.541" rx="2.404" ry="2.246" fill="#614934" opacity="-.121"/><ellipse cx="663.553" cy="795.619" rx="2.408" ry="2.164" fill="#614934" opacity=".01"/><ellipse cx="752.553" cy="805.693" rx="2.239" ry="2.056" fill="#614934" opacity="-.152"/><ellipse cx="771.623" cy="778.631" rx="2.982" ry="2.662" fill="#614934" opacity=".17"/><ellipse cx="912.711" cy="777.966" rx="2.477" ry="2.33" fill="#614934" opacity=".755"/><ellipse cx="940.74" cy="769.232" rx="2.955" ry="2.886" fill="#614934" opacity=".531"/><ellipse cx="1009.274" cy="770.403" rx="3.361" ry="2.973" fill="#614934" opacity=".556"/><ellipse cx="1124.865" cy="804.241" rx="3.718" ry="3.464" fill="#614934" opacity=".374"/><ellipse cx="1206.674" cy="764.837" rx="4.177" ry="3.823" fill="#614934" opacity="-.267"/><ellipse cx="1304.023" cy="797.876" rx="3.586" ry="3.443" fill="#614934" opacity=".061"/><ellipse cx="1335.363" cy="782.629" rx="3.522" ry="3.392" fill="#614934" opacity=".308"/><ellipse cx="1462.756" cy="763.336" rx="3.496" ry="3.289" fill="#614934" opacity=".744"/><ellipse cx="1530.054" cy="802.468" rx="3.457" ry="3.152" fill="#614934" opacity="-.157"/><ellipse cx="1562.952" cy="778.967" rx="2.835" ry="2.657" fill="#614934" opacity=".286"/><ellipse cx="1688.922" cy="776.092" rx="2.423" ry="2.364" fill="#614934" opacity=".442"/><ellipse cx="1750.105" cy="803.304" rx="3.26" ry="3.189" fill="#614934" opacity=".522"/><ellipse cx="1808.212" cy="775.636" rx="2.665" ry="2.359" fill="#614934" opacity=".576"/><ellipse cx="1858.22" cy="806.292" rx="4.119" ry="3.711" fill="#614934" opacity=".594"/><ellipse cx="49.809" cy="860.102" rx="4.307" ry="3.895" fill="#614934" opacity=".082"/><ellipse cx="129.392" cy="853.528" rx="2.951" ry="2.884" fill="#614934" opacity=".564"/><ellipse cx="228.455" cy="828.638" rx="4.353" ry="3.95" fill="#614934" opacity="-.156"/><ellipse cx="249.683" cy="835.775" rx="4.045" ry="3.8" fill="#614934" opacity=".401"/><ellipse cx="381.202" cy="843.882" rx="2.939" ry="2.789" fill="#614934" opacity=".059"/><ellipse cx="437.555" cy="852.794" rx="3.495" ry="3.313" fill="#614934" opacity=".556"/><ellipse cx="472.446" cy="815.242" rx="3.44" ry="3.189" fill="#614934" opacity=".6"/><ellipse cx="550.812" cy="826.33" rx="4.23" ry="3.851" fill="#614934" opacity=".499"/><ellipse cx="659.97" cy="853.165" rx="3.082" ry="3.037" fill="#614934" opacity=".824"/><ellipse cx="723.964" cy="829.801" rx="3.897" ry="3.567" fill="#614934" opacity=".622"/><ellipse cx="835.408" cy="857.728" rx="2.851" ry="2.44" fill="#614934" opacity=".207"/><ellipse cx="919.455" cy="860.664" rx="3.539" ry="3.301" fill="#614934" opacity="-.11"/><ellipse cx="979.823" cy="812.083" rx="2.429" ry="2.288" fill="#614934" opacity=".393"/><ellipse cx="1058.466" cy="835.537" rx="3.267" ry="3.123" fill="#614934" opacity=".45"/><ellipse cx="1089.247" cy="854.231" rx="3.541" ry="3.241" fill="#614934" opacity=".856"/><ellipse cx="1227.367" cy="857.634" rx="2.904" ry="2.822" fill="#614934" opacity="-.13"/><ellipse cx="1260.043" cy="810.282" rx="3.041" ry="2.59" fill="#614934" opacity=".792"/><ellipse cx="1315.661" cy="846.709" rx="2.733" ry="2.66" fill="#614934" opacity="-.168"/><ellipse cx="1435.154" cy="814.445" rx="2.826" ry="2.639" fill="#614934" opacity=".287"/><ellipse cx="1496.365" cy="816.476" rx="3.013" ry="2.829" fill="#614934" opacity=".686"/><ellipse cx="1583.133" cy="817.382" rx="2.635" ry="2.391" fill="#614934" opacity=".615"/><ellipse cx="1692.663" cy="833.785" rx="2.36" ry="2.03" fill="#614934" opacity=".391"/><ellipse cx="1735.939" cy="858.713" rx="3.21" ry="3.044" fill="#614934" opacity="-.013"/><ellipse cx="1839.325" cy="831.739" rx="3.387" ry="2.891" fill="#614934" opacity=".648"/><ellipse cx="1853.506" cy="825.109" rx="2.495" ry="2.402" fill="#614934" opacity="-.273"/><ellipse cx="40.277" cy="910.97" rx="3.884" ry="3.488" fill="#614934" opacity=".384"/><ellipse cx="138.67" cy="887.33" rx="3.856" ry="3.388" fill="#614934" opacity="-.18"/><ellipse cx="187.391" cy="895.983" rx="3.972" ry="3.695" fill="#614934" opacity=".277"/><ellipse cx="245.205" cy="891.75" rx="3.351" ry="3.074" fill="#614934" opacity=".8"/><ellipse cx="319.798" cy="903.636" rx="2.272" ry="2.15" fill="#614934" opacity=".146"/><ellipse cx="459.884" cy="878.512" rx="2.698" ry="2.572" fill="#614934" opacity="-.093"/><ellipse cx="473.275" cy="902.634" rx="3.175" ry="2.841" fill="#614934" opacity=".845"/><ellipse cx="544.466" cy="891.199" rx="3.149" ry="2.762" fill="#614934" opacity=".759"/><ellipse cx="632.461" cy="906.016" rx="4.297" ry="3.798" fill="#614934" opacity=".514"/><ellipse cx="694.86" cy="909.584" rx="3.782" ry="3.565" fill="#614934" opacity=".13"/><ellipse cx="776.82" cy="913.23" rx="2.76" ry="2.322" fill="#614934" opacity=".92"/><ellipse cx="855.969" cy="905.88" rx="2.922" ry="2.518" fill="#614934" opacity=".359"/><ellipse cx="982.923" cy="892.524" rx="3.755" ry="3.389" fill="#614934" opacity=".87"/><ellipse cx="1066.739" cy="910.628" rx="2.225" ry="2.204" fill="#614934" opacity=".116"/><ellipse cx="1098.747" cy="882.572" rx="3.181" ry="2.912" fill="#614934" opacity=".092"/><ellipse cx="1157.712" cy="914.452" rx="3.1" ry="2.722" fill="#614934" opacity=".053"/><ellipse cx="1297.23" cy="866.353" rx="2.273" ry="2" fill="#614934" opacity=".37"/><ellipse cx="1347.851" cy="873.892" rx="2.407" ry="2.234" fill="#614934" opacity=".083"/><ellipse cx="1424.505" cy="913.92" rx="3.637" ry="3.483" fill="#614934" opacity=".763"/><ellipse cx="1491.821" cy="893.134" rx="4.033" ry="3.856" fill="#614934" opacity=".425"/><ellipse cx="1605.586" cy="892.27" rx="4.244" ry="3.828" fill="#614934" opacity=".19"/><ellipse cx="1672.325" cy="880.013" rx="3.536" ry="3.485" fill="#614934" opacity=".034"/><ellipse cx="1760.426" cy="876.366" rx="2.724" ry="2.28" fill="#614934" opacity=".143"/><ellipse cx="1836.425" cy="873.149" rx="3.964" ry="3.62" fill="#614934" opacity="-.032"/><ellipse cx="1890.216" cy="897.806" rx="2.474" ry="2.374" fill="#614934" opacity=".527"/><ellipse cx="48.651" cy="921.835" rx="4.055" ry="3.718" fill="#614934" opacity=".474"/><ellipse cx="140.274" cy="956.341" rx="2.615" ry="2.606" fill="#614934" opacity=".474"/><ellipse cx="157.993" cy="941.173" rx="2.867" ry="2.638" fill="#614934" opacity=".04"/><ellipse cx="258.905" cy="943.615" rx="3.826" ry="3.572" fill="#614934" opacity=".41"/><ellipse cx="316.224" cy="970.91" rx="2.199" ry="2.141" fill="#614934" opacity=".571"/><ellipse cx="427.364" cy="955.038" rx="3.402" ry="3.222" fill="#614934" opacity="-.042"/><ellipse cx="487.059" cy="953.877" rx="3.882" ry="3.696" fill="#614934" opacity=".929"/><ellipse cx="612.795" cy="956.947" rx="3.298" ry="3.023" fill="#614934" opacity=".666"/><ellipse cx="681.062" cy="944.128" rx="4.419" ry="3.974" fill="#614934" opacity=".35"/><ellipse cx="757.526" cy="966.978" rx="2.887" ry="2.397" fill="#614934" opacity=".046"/><ellipse cx="792.03" cy="950.157" rx="3.125" ry="2.915" fill="#614934" opacity=".789"/><ellipse cx="861.436" cy="943.771" rx="3.22" ry="2.755" fill="#614934" opacity=".595"/><ellipse cx="928.594" cy="937.809" rx="2.631" ry="2.605" fill="#614934" opacity=".832"/><ellipse cx="1042.479" cy="927.94" rx="2.636" ry="2.47" fill="#614934" opacity=".575"/><ellipse cx="1078.932" cy="948.263" rx="3.064" ry="2.986" fill="#614934" opacity=".224"/><ellipse cx="1174.059" cy="922.87" rx="3.319" ry="3.018" fill="#614934" opacity=".578"/><ellipse cx="1304.18" cy="919.25" rx="3.905" ry="3.857" fill="#614934" opacity=".487"/><ellipse cx="1313.716" cy="918.589" rx="4.218" ry="3.845" fill="#614934" opacity=".086"/><ellipse cx="1444.655" cy="938.437" rx="2.85" ry="2.825" fill="#614934" opacity=".662"/><ellipse cx="1517.407" cy="947.319" rx="3.892" ry="3.699" fill="#614934" opacity="-.08"/><ellipse cx="1595.056" cy="918.863" rx="3.377" ry="3.293" fill="#614934" opacity=".137"/><ellipse cx="1658.101" cy="942.079" rx="3.818" ry="3.678" fill="#614934" opacity="-.057"/><ellipse cx="1716.035" cy="970.559" rx="3.711" ry="3.505" fill="#614934" opacity=".728"/><ellipse cx="1825.557" cy="942.485" rx="2.517" ry="2.279" fill="#614934" opacity="-.151"/><ellipse cx="1917.109" cy="943.95" rx="4.135" ry="3.908" fill="#614934" opacity="-.094"/><ellipse cx="41.291" cy="1023.327" rx="3.395" ry="3.164" fill="#614934" opacity=".834"/><ellipse cx="109.679" cy="1012.327" rx="3.314" ry="2.856" fill="#614934" opacity=".784"/><ellipse cx="167.389" cy="1000.547" rx="4.002" ry="3.715" fill="#614934" opacity=".215"/><ellipse cx="233.624" cy="1022.805" rx="2.164" ry="2.018" fill="#614934" opacity=".456"/><ellipse cx="319.443" cy="982.397" rx="2.114" ry="2.041" fill="#614934" opacity="-.077"/><ellipse cx="442.859" cy="972.945" rx="2.945" ry="2.803" fill="#614934" opacity=".174"/><ellipse cx="482.107" cy="1004.314" rx="2.685" ry="2.575" fill="#614934" opacity=".935"/><ellipse cx="607.051" cy="975.381" rx="3.887" ry="3.87" fill="#614934" opacity=".747"/><ellipse cx="683.226" cy="1008.927" rx="3.514" ry="3.031" fill="#614934" opacity=".09"/><ellipse cx="763.941" cy="1004.902" rx="4.05" ry="3.756" fill="#614934" opacity="-.063"/><ellipse cx="772.688" cy="1020.184" rx="4.057" ry="3.919" fill="#614934" opacity="-.077"/><ellipse cx="887.03" cy="1000.749" rx="2.435" ry="2.063" fill="#614934" opacity=".672"/><ellipse cx="961.174" cy="1024.822" rx="3.886" ry="3.671" fill="#614934" opacity=".262"/><ellipse cx="1058.612" cy="983.005" rx="2.634" ry="2.157" fill="#614934" opacity=".642"/><ellipse cx="1151.67" cy="1017.896" rx="3.896" ry="3.685" fill="#614934" opacity=".035"/><ellipse cx="1189.02" cy="998.853" rx="2.308" ry="2.041" fill="#614934" opacity=".087"/><ellipse cx="1251.815" cy="985.638" rx="3.143" ry="2.814" fill="#614934" opacity=".809"/><ellipse cx="1339.941" cy="999.462" rx="3.66" ry="3.325" fill="#614934" opacity=".644"/><ellipse cx="1419.311" cy="993.505" rx="4.48" ry="3.985" fill="#614934" opacity=".077"/><ellipse cx="1521.043" cy="997.544" rx="3.067" ry="2.832" fill="#614934" opacity=".765"/><ellipse cx="1616.746" cy="1016.132" rx="2.879" ry="2.592" fill="#614934" opacity=".735"/><ellipse cx="1654.255" cy="1004.486" rx="2.897" ry="2.866" fill="#614934" opacity=".606"/><ellipse cx="1730.99" cy="1016.566" rx="3.656" ry="3.607" fill="#614934" opacity=".139"/><ellipse cx="1811.168" cy="997.871" rx="2.493" ry="2.091" fill="#614934" opacity=".111"/><ellipse cx="1909.73" cy="1012.993" rx="2.697" ry="2.409" fill="#614934" opacity=".647"/><ellipse cx="71.279" cy="1038.26" rx="3.978" ry="3.766" fill="#614934" opacity="-.223"/><ellipse cx="82.55" cy="1031.302" rx="3.219" ry="2.78" fill="#614934" opacity="-.024"/><ellipse cx="196.157" cy="1042.703" rx="3.318" ry="3.082" fill="#614934" opacity=".257"/><ellipse cx="266.491" cy="1049.532" rx="2.676" ry="2.561" fill="#614934" opacity=".658"/><ellipse cx="382.937" cy="1034.888" rx="3.826" ry="3.755" fill="#614934" opacity=".228"/><ellipse cx="445.861" cy="1065.045" rx="3.458" ry="3.06" fill="#614934" opacity=".052"/><ellipse cx="506.63" cy="1032.74" rx="3.786" ry="3.474" fill="#614934" opacity=".032"/><ellipse cx="603.475" cy="1065.657" rx="2.553" ry="2.468" fill="#614934" opacity="-.142"/><ellipse cx="682.082" cy="1076.324" rx="2.582" ry="2.526" fill="#614934" opacity=".317"/><ellipse cx="765.877" cy="1058.839" rx="3.384" ry="3.374" fill="#614934" opacity=".58"/><ellipse cx="841.585" cy="1046.299" rx="2.48" ry="2.251" fill="#614934" opacity=".012"/><ellipse cx="889.015" cy="1046.444" rx="3.888" ry="3.728" fill="#614934" opacity=".214"/><ellipse cx="939.527" cy="1032.365" rx="2.948" ry="2.598" fill="#614934" opacity=".153"/><ellipse cx="1006.447" cy="1036.202" rx="3.02" ry="2.992" fill="#614934" opacity="-.08"/><ellipse cx="1089.052" cy="1068.337" rx="2.569" ry="2.439" fill="#614934" opacity=".187"/><ellipse cx="1175.737" cy="1073.316" rx="2.78" ry="2.603" fill="#614934" opacity=".502"/><ellipse cx="1304.188" cy="1036.39" rx="2.287" ry="2.005" fill="#614934" opacity=".537"/><ellipse cx="1370.957" cy="1078.859" rx="3.267" ry="3.185" fill="#614934" opacity=".464"/><ellipse cx="1409.017" cy="1059.612" rx="3.982" ry="3.771" fill="#614934" opacity=".427"/><ellipse cx="1481.775" cy="1051.009" rx="2.675" ry="2.49" fill="#614934" opacity="-.166"/><ellipse cx="1598.058" cy="1064.246" rx="3.97" ry="3.907" fill="#614934" opacity=".145"/><ellipse cx="1684.538" cy="1028.237" rx="2.164" ry="2.003" fill="#614934" opacity=".591"/><ellipse cx="1707.463" cy="1075.755" rx="4.313" ry="3.913" fill="#614934" opacity=".702"/><ellipse cx="1809.766" cy="1039.611" rx="3.625" ry="3.445" fill="#614934" opacity="-.087"/><ellipse cx="1920.855" cy="1042.749" rx="2.666" ry="2.593" fill="#614934" opacity=".389"/></svg>